<?xml version="1.0" encoding="UTF-8" standalone="no"?>
<!-- Created with Inkscape (http://www.inkscape.org/) -->

<svg
   xmlns:dc="http://purl.org/dc/elements/1.1/"
   xmlns:cc="http://creativecommons.org/ns#"
   xmlns:rdf="http://www.w3.org/1999/02/22-rdf-syntax-ns#"
   xmlns:svg="http://www.w3.org/2000/svg"
   xmlns="http://www.w3.org/2000/svg"
   xmlns:sodipodi="http://sodipodi.sourceforge.net/DTD/sodipodi-0.dtd"
   xmlns:inkscape="http://www.inkscape.org/namespaces/inkscape"
   width="210mm"
   height="210mm"
   viewBox="0 0 210 210"
   version="1.1"
   id="svg8"
   inkscape:version="0.92.2 (5c3e80d, 2017-08-06)"
   sodipodi:docname="translate-mask.svg">
  <defs
     id="defs2" />
  <sodipodi:namedview
     id="base"
     pagecolor="#ffffff"
     bordercolor="#666666"
     borderopacity="1.0"
     inkscape:pageopacity="0.0"
     inkscape:pageshadow="2"
     inkscape:zoom="0.88051711"
     inkscape:cx="323.44213"
     inkscape:cy="371.06817"
     inkscape:document-units="mm"
     inkscape:current-layer="layer1"
     showgrid="false"
     inkscape:window-width="1920"
     inkscape:window-height="1017"
     inkscape:window-x="1272"
     inkscape:window-y="-8"
     inkscape:window-maximized="1"
     showguides="false"
     inkscape:guide-bbox="true"
     inkscape:snap-to-guides="true">
    <sodipodi:guide
       position="189.74098,69.904571"
       orientation="0.70710678,0.70710678"
       id="guide4669"
       inkscape:locked="false" />
    <sodipodi:guide
       position="16.57312,-19.122831"
       orientation="0.70710678,0.70710678"
       id="guide4681"
       inkscape:locked="false" />
    <sodipodi:guide
       position="92.54978,20.132582"
       orientation="0.70710678,0.70710678"
       id="guide1636"
       inkscape:locked="false" />
    <sodipodi:guide
       position="203.97686,99.013769"
       orientation="0.70710678,0.70710678"
       id="guide1643"
       inkscape:locked="false" />
    <sodipodi:guide
       position="405.40402,259.2206"
       orientation="0.70710678,0.70710678"
       id="guide1035"
       inkscape:locked="false" />
    <sodipodi:guide
       position="90.53939,43.857907"
       orientation="0.70710678,0.70710678"
       id="guide1250"
       inkscape:locked="false" />
    <sodipodi:guide
       position="140.44657,55.031258"
       orientation="0.70710678,0.70710678"
       id="guide1277"
       inkscape:locked="false" />
  </sodipodi:namedview>
  <metadata
     id="metadata5">
    <rdf:RDF>
      <cc:Work
         rdf:about="">
        <dc:format>image/svg+xml</dc:format>
        <dc:type
           rdf:resource="http://purl.org/dc/dcmitype/StillImage" />
        <dc:title></dc:title>
      </cc:Work>
    </rdf:RDF>
  </metadata>
  <g
     inkscape:label="Capa 1"
     inkscape:groupmode="layer"
     id="layer1"
     transform="translate(0,-87)">
    <path
       style="fill:none;stroke:none;stroke-width:0.26458332px;stroke-linecap:butt;stroke-linejoin:miter;stroke-opacity:1"
       d="m 199.24943,247.23442 -88.11876,-88.11877 -51.870336,49.2511 187.977346,86.85591 z"
       id="path4753"
       inkscape:connector-curvature="0" />
    <path
       style="fill:none;stroke:none;stroke-width:0.26458332px;stroke-linecap:butt;stroke-linejoin:miter;stroke-opacity:1"
       d="M 301.35724,333.27667 188.25936,220.1788 53.987424,274.6997 185.14739,405.85966 Z"
       id="path1631"
       inkscape:connector-curvature="0" />
    <g
       id="g964"
       transform="matrix(0.24134378,0,0,0.24134378,41.613698,130.83003)" />
    <g
       id="g966"
       transform="matrix(0.24134378,0,0,0.24134378,41.613698,130.83003)" />
    <g
       id="g968"
       transform="matrix(0.24134378,0,0,0.24134378,41.613698,130.83003)" />
    <g
       id="g970"
       transform="matrix(0.24134378,0,0,0.24134378,41.613698,130.83003)" />
    <g
       id="g972"
       transform="matrix(0.24134378,0,0,0.24134378,41.613698,130.83003)" />
    <g
       id="g974"
       transform="matrix(0.24134378,0,0,0.24134378,41.613698,130.83003)" />
    <g
       id="g976"
       transform="matrix(0.24134378,0,0,0.24134378,41.613698,130.83003)" />
    <g
       id="g978"
       transform="matrix(0.24134378,0,0,0.24134378,41.613698,130.83003)" />
    <g
       id="g980"
       transform="matrix(0.24134378,0,0,0.24134378,41.613698,130.83003)" />
    <g
       id="g982"
       transform="matrix(0.24134378,0,0,0.24134378,41.613698,130.83003)" />
    <g
       id="g984"
       transform="matrix(0.24134378,0,0,0.24134378,41.613698,130.83003)" />
    <g
       id="g986"
       transform="matrix(0.24134378,0,0,0.24134378,41.613698,130.83003)" />
    <g
       id="g988"
       transform="matrix(0.24134378,0,0,0.24134378,41.613698,130.83003)" />
    <g
       id="g990"
       transform="matrix(0.24134378,0,0,0.24134378,41.613698,130.83003)" />
    <g
       id="g992"
       transform="matrix(0.24134378,0,0,0.24134378,41.613698,130.83003)" />
    <g
       id="g1463"
       transform="matrix(0.40308873,0,0,0.40308873,0.84935121,88.769424)">
      <g
         id="g1370">
        <g
           id="g1368">
          <polygon
             id="polygon1366"
             points="138.71,137 132.29,137 120.293,197 150.707,197 "
             style="fill:#ffffff" />
        </g>
      </g>
      <g
         id="g1376">
        <g
           id="g1374">
          <path
             id="path1372"
             d="m 381.374,257 c 6.477,17.399 15.092,31.483 24.626,43.467 9.534,-11.984 19.149,-26.069 25.626,-43.467 z"
             inkscape:connector-curvature="0"
             style="fill:#ffffff" />
        </g>
      </g>
      <g
         id="g1382">
        <g
           id="g1380">
          <path
             id="path1378"
             d="M 467,91 H 280.717 l 38.842,311.679 c 0.687,12.748 -2.798,24.75 -11.118,34.146 L 242.663,512 H 467 c 24.814,0 45,-20.186 45,-45 V 137 c 0,-24.814 -20.186,-46 -45,-46 z m 0,166 h -4.006 c -8.535,27.383 -22.07,48.81 -36.136,65.702 11.019,10.074 22.802,18.338 34.517,27.594 6.46,5.171 7.515,14.604 2.329,21.079 -5.162,6.465 -14.632,7.513 -21.079,2.329 -12.729,-10.047 -24.677,-18.457 -36.625,-29.421 -11.948,10.964 -22.896,19.374 -35.625,29.421 -6.447,5.184 -15.917,4.136 -21.079,-2.329 -5.186,-6.475 -4.131,-15.908 2.329,-21.079 11.715,-9.256 22.498,-17.52 33.517,-27.594 C 371.076,305.811 358.54,284.384 350.006,257 H 346 c -8.291,0 -15,-6.709 -15,-15 0,-8.291 6.709,-15 15,-15 h 45 v -15 c 0,-8.291 6.709,-15 15,-15 8.291,0 15,6.709 15,15 v 15 h 46 c 8.291,0 15,6.709 15,15 0,8.291 -6.709,15 -15,15 z"
             inkscape:connector-curvature="0"
             style="fill:#ffffff" />
        </g>
      </g>
      <g
         id="g1388">
        <g
           id="g1386">
          <path
             id="path1384"
             d="M 244.164,39.419 C 241.366,16.948 222.162,0 199.516,0 H 45 C 20.186,0 0,20.186 0,45 v 332 c 0,24.814 20.186,45 45,45 89.67,0 154.177,0 236.551,0 4.376,-5.002 8.044,-8.134 8.199,-14.663 C 289.788,405.7 244.367,41.043 244.164,39.419 Z m -60.22,247.288 c -7.954,1.637 -16.011,-3.527 -17.651,-11.763 L 156.706,227 h -42.411 l -9.587,47.944 c -1.611,8.115 -9.434,13.447 -17.651,11.763 -8.115,-1.626 -13.389,-9.521 -11.763,-17.651 l 29.999,-150 C 106.699,112.054 112.852,107 120,107 h 31 c 7.148,0 13.301,5.054 14.707,12.056 l 30,150 c 1.626,8.13 -3.647,16.025 -11.763,17.651 z"
             inkscape:connector-curvature="0"
             style="fill:#ffffff" />
        </g>
      </g>
      <g
         id="g1394">
        <g
           id="g1392">
          <path
             id="path1390"
             d="m 175.261,452 2.574,20.581 c 1.716,13.783 10.874,27.838 25.938,34.856 28.428,-31.294 11.229,-12.362 50.359,-55.437 z"
             inkscape:connector-curvature="0"
             style="fill:#ffffff" />
        </g>
      </g>
      <g
         id="g1396" />
      <g
         id="g1398" />
      <g
         id="g1400" />
      <g
         id="g1402" />
      <g
         id="g1404" />
      <g
         id="g1406" />
      <g
         id="g1408" />
      <g
         id="g1410" />
      <g
         id="g1412" />
      <g
         id="g1414" />
      <g
         id="g1416" />
      <g
         id="g1418" />
      <g
         id="g1420" />
      <g
         id="g1422" />
      <g
         id="g1424" />
    </g>
  </g>
</svg>
